<svg width="156" height="41" viewBox="0 0 156 41" fill="none" xmlns="http://www.w3.org/2000/svg">
<path d="M56.7336 9.01705C57.8023 9.2448 58.6608 9.77914 59.309 10.6201C59.9572 11.4435 60.2813 12.3896 60.2813 13.4582C60.2813 15 59.7382 16.2263 58.652 17.1373C57.5833 18.0308 56.0854 18.4776 54.1583 18.4776H45.5649V0.029541H53.8692C55.7438 0.029541 57.2066 0.458769 58.2578 1.31722C59.3265 2.17568 59.8609 3.34073 59.8609 4.81236C59.8609 5.89857 59.5718 6.80083 58.9936 7.51913C58.433 8.23743 57.6797 8.73673 56.7336 9.01705ZM50.0587 7.49285H53.002C53.7378 7.49285 54.2984 7.33517 54.6838 7.01982C55.0868 6.68695 55.2883 6.20517 55.2883 5.57446C55.2883 4.94376 55.0868 4.46198 54.6838 4.1291C54.2984 3.79623 53.7378 3.6298 53.002 3.6298H50.0587V7.49285ZM53.3699 14.851C54.1232 14.851 54.7014 14.6846 55.1043 14.3517C55.5248 14.0013 55.735 13.502 55.735 12.8538C55.735 12.2056 55.516 11.6975 55.078 11.3296C54.6576 10.9617 54.0707 10.7778 53.3173 10.7778H50.0587V14.851H53.3699Z" fill="#082852"/>
<path d="M67.3814 0.029541V18.4776H62.8877V0.029541H67.3814Z" fill="#082852"/>
<path d="M81.3337 18.4776L75.1318 10.331V18.4776H70.638V0.029541H75.1318V8.12355L81.2811 0.029541H86.5632L79.4153 9.0696L86.826 18.4776H81.3337Z" fill="#082852"/>
<path d="M93.4554 3.6298V7.36145H99.4733V10.8303H93.4554V14.8773H100.262V18.4776H88.9616V0.029541H100.262V3.6298H93.4554Z" fill="#082852"/>
<path d="M52.4764 21.3817C54.421 21.3817 56.1204 21.7671 57.5746 22.538C59.0287 23.3088 60.1499 24.395 60.9383 25.7966C61.7442 27.1806 62.1472 28.7837 62.1472 30.6057C62.1472 32.4102 61.7442 34.0132 60.9383 35.4148C60.1499 36.8164 59.0199 37.9026 57.5483 38.6734C56.0942 39.4443 54.4035 39.8297 52.4764 39.8297H45.5649V21.3817H52.4764ZM52.1873 35.9404C53.8867 35.9404 55.2094 35.4761 56.1555 34.5476C57.1015 33.6191 57.5746 32.3051 57.5746 30.6057C57.5746 28.9063 57.1015 27.5836 56.1555 26.6375C55.2094 25.6915 53.8867 25.2185 52.1873 25.2185H50.0587V35.9404H52.1873Z" fill="#F15C45"/>
<path d="M73.3832 40.0137C71.6487 40.0137 70.0545 39.6107 68.6003 38.8048C67.1637 37.9989 66.0162 36.8777 65.1578 35.4411C64.3168 33.987 63.8964 32.3577 63.8964 30.5531C63.8964 28.7486 64.3168 27.1281 65.1578 25.6915C66.0162 24.2549 67.1637 23.1336 68.6003 22.3277C70.0545 21.5218 71.6487 21.1189 73.3832 21.1189C75.1176 21.1189 76.7031 21.5218 78.1397 22.3277C79.5938 23.1336 80.7326 24.2549 81.556 25.6915C82.397 27.1281 82.8174 28.7486 82.8174 30.5531C82.8174 32.3577 82.397 33.987 81.556 35.4411C80.7151 36.8777 79.5763 37.9989 78.1397 38.8048C76.7031 39.6107 75.1176 40.0137 73.3832 40.0137ZM73.3832 35.9141C74.8548 35.9141 76.0286 35.4236 76.9046 34.4425C77.7981 33.4614 78.2448 32.1649 78.2448 30.5531C78.2448 28.9238 77.7981 27.6274 76.9046 26.6638C76.0286 25.6827 74.8548 25.1922 73.3832 25.1922C71.894 25.1922 70.7027 25.674 69.8092 26.6375C68.9332 27.6011 68.4952 28.9063 68.4952 30.5531C68.4952 32.1825 68.9332 33.4877 69.8092 34.4688C70.7027 35.4323 71.894 35.9141 73.3832 35.9141Z" fill="#F15C45"/>
<path d="M84.5553 30.5794C84.5553 28.7574 84.9495 27.1368 85.7379 25.7178C86.5263 24.2812 87.6213 23.1687 89.0228 22.3803C90.4419 21.5744 92.0449 21.1715 93.8319 21.1715C96.0219 21.1715 97.8964 21.7496 99.4557 22.9059C101.015 24.0622 102.057 25.6389 102.583 27.6362H97.6424C97.2745 26.8653 96.7489 26.2784 96.0657 25.8754C95.3999 25.4725 94.6378 25.271 93.7794 25.271C92.3953 25.271 91.2741 25.7528 90.4156 26.7164C89.5572 27.6799 89.1279 28.9676 89.1279 30.5794C89.1279 32.1912 89.5572 33.4789 90.4156 34.4425C91.2741 35.406 92.3953 35.8878 93.7794 35.8878C94.6378 35.8878 95.3999 35.6864 96.0657 35.2834C96.7489 34.8805 97.2745 34.2936 97.6424 33.5227H102.583C102.057 35.5199 101.015 37.0967 99.4557 38.253C97.8964 39.3917 96.0219 39.9611 93.8319 39.9611C92.0449 39.9611 90.4419 39.5669 89.0228 38.7786C87.6213 37.9727 86.5263 36.8602 85.7379 35.4411C84.9495 34.022 84.5553 32.4015 84.5553 30.5794Z" fill="#F15C45"/>
<path d="M118.606 21.3817V24.9819H113.718V39.8297H109.224V24.9819H104.336V21.3817H118.606Z" fill="#F15C45"/>
<path d="M129.586 40.0137C127.851 40.0137 126.257 39.6107 124.803 38.8048C123.366 37.9989 122.219 36.8777 121.36 35.4411C120.52 33.987 120.099 32.3577 120.099 30.5531C120.099 28.7486 120.52 27.1281 121.36 25.6915C122.219 24.2549 123.366 23.1336 124.803 22.3277C126.257 21.5218 127.851 21.1189 129.586 21.1189C131.32 21.1189 132.906 21.5218 134.342 22.3277C135.797 23.1336 136.935 24.2549 137.759 25.6915C138.6 27.1281 139.02 28.7486 139.02 30.5531C139.02 32.3577 138.6 33.987 137.759 35.4411C136.918 36.8777 135.779 37.9989 134.342 38.8048C132.906 39.6107 131.32 40.0137 129.586 40.0137ZM129.586 35.9141C131.058 35.9141 132.231 35.4236 133.107 34.4425C134.001 33.4614 134.448 32.1649 134.448 30.5531C134.448 28.9238 134.001 27.6274 133.107 26.6638C132.231 25.6827 131.058 25.1922 129.586 25.1922C128.097 25.1922 126.905 25.674 126.012 26.6375C125.136 27.6011 124.698 28.9063 124.698 30.5531C124.698 32.1825 125.136 33.4877 126.012 34.4688C126.905 35.4323 128.097 35.9141 129.586 35.9141Z" fill="#F15C45"/>
<path d="M150.928 39.8297L147.091 32.8657H146.014V39.8297H141.52V21.3817H149.062C150.516 21.3817 151.752 21.6357 152.768 22.1438C153.801 22.6519 154.572 23.3526 155.08 24.2461C155.588 25.1221 155.842 26.1032 155.842 27.1894C155.842 28.4158 155.492 29.5107 154.791 30.4743C154.108 31.4379 153.092 32.1211 151.743 32.5241L156 39.8297H150.928ZM146.014 29.6859H148.799C149.623 29.6859 150.236 29.4845 150.639 29.0815C151.06 28.6786 151.27 28.1092 151.27 27.3734C151.27 26.6726 151.06 26.1207 150.639 25.7178C150.236 25.3148 149.623 25.1133 148.799 25.1133H146.014V29.6859Z" fill="#F15C45"/>
<path d="M0 35.7234V4.10613C0 1.83838 1.83838 0 4.10613 0H9.02563L14.5089 5.50675C14.5076 5.50712 14.507 5.50731 14.507 5.50731C14.507 5.50731 19.9448 10.9757 23.2573 14.2925L24.0951 15.1339C26.3847 17.5471 26.3463 21.3598 23.98 23.7261L23.5208 24.1853C21.1155 26.5906 17.2157 26.5906 14.8104 24.1853L5.39666 14.7715C4.82685 16.3799 4.51675 18.1111 4.51675 19.9147C4.51675 28.4188 11.4107 35.3127 19.9147 35.3127C22.06 35.3127 24.1029 34.874 25.9584 34.0814L31.7065 39.8295H4.10613C1.83838 39.8295 0 37.9911 0 35.7234Z" fill="#F15C45"/>
<path d="M14.509 5.50674L9.0257 0H35.7234C37.9912 0 39.8296 1.83838 39.8296 4.10613V33.349L33.5521 27.0715C34.6765 24.9333 35.3128 22.4983 35.3128 19.9147C35.3128 11.4107 28.4188 4.51675 19.9148 4.51675C18.0243 4.51675 14.6038 5.47995 14.509 5.50674Z" fill="#082852"/>
</svg>
